<?xml version="1.0" ?><svg viewBox="0 0 360 410" xmlns="http://www.w3.org/2000/svg"><defs><style>.cls-1{fill:#c5c6ef;}.cls-2{fill:#385868;}.cls-3{fill:#426572;}.cls-4{fill:#6ae184;}.cls-5{fill:#a8ff8c;}.cls-6{fill:#389d9c;}</style></defs><title/><g data-name="Layer 2" id="Layer_2"><g data-name="Layer 1" id="Layer_1-2"><path class="cls-1" d="M287,399l9-6a13,13,0,0,1-13,13H19A13,13,0,0,1,6,393V21A13,13,0,0,1,19,8H13L35.5,363.5a13,13,0,0,0,13,13Z"/><rect class="cls-2" height="14.03" width="84.72" x="66.28" y="72.42"/><rect class="cls-2" height="14.03" width="84.73" x="66.28" y="146.88"/><rect class="cls-2" height="14.03" width="136.07" x="66.28" y="108.37"/><rect class="cls-2" height="14.03" width="84.72" x="66.28" y="237.42"/><rect class="cls-2" height="14.03" width="84.73" x="66.28" y="311.88"/><rect class="cls-2" height="14.03" width="136.07" x="66.28" y="273.37"/><path class="cls-3" d="M283,410H19A19,19,0,0,1,0,391V19A19,19,0,0,1,19,0H283a19,19,0,0,1,19,19V391A19,19,0,0,1,283,410ZM19,12a7,7,0,0,0-7,7V391a7,7,0,0,0,7,7H283a7,7,0,0,0,7-7V19a7,7,0,0,0-7-7Z"/><circle class="cls-4" cx="295.5" cy="229.5" r="58.5"/><path class="cls-5" d="M347,226.5a58.52,58.52,0,0,1-65,58.14,58.5,58.5,0,0,0,0-116.28,58.52,58.52,0,0,1,65,58.14Z"/><path class="cls-6" d="M306,284.52a58.5,58.5,0,1,1,0-116,58.5,58.5,0,0,0,0,116Z"/><path class="cls-3" d="M295.5,291A64.5,64.5,0,1,1,360,226.5,64.57,64.57,0,0,1,295.5,291Zm0-117A52.5,52.5,0,1,0,348,226.5,52.56,52.56,0,0,0,295.5,174Z"/><path class="cls-3" d="M284.63,211v37.75c0,9.65,15,9.67,15,0V211c0-9.65-15-9.67-15,0Z"/><path class="cls-3" d="M311,222.38H273.25c-9.65,0-9.67,15,0,15H311c9.65,0,9.67-15,0-15Z"/></g></g></svg>