<?xml version="1.0" ?><svg viewBox="0 0 466.92 395.66" xmlns="http://www.w3.org/2000/svg"><defs><style>.cls-1{fill:#fff;}.cls-2{fill:#c5c6ef;}.cls-3{fill:#385868;}.cls-4{fill:#6ae184;}.cls-5{fill:#a8ff8c;}.cls-6{fill:#389d9c;}</style></defs><title/><g data-name="Layer 2" id="Layer_2"><g data-name="Layer 1" id="Layer_1-2"><path class="cls-1" d="M300,212.56a145.23,145.23,0,0,1-1.18,18.55,144.06,144.06,0,0,1-5.41,26.58l-.58-.15A144,144,0,0,1,156,356.5l-1.08,0-.68,0A143.62,143.62,0,0,1,109,349.24L52.67,386.39A13.5,13.5,0,0,1,32,372.25l14.07-64.74A143.93,143.93,0,0,1,154.28,68.62l.67,0,1.1,0A143.94,143.94,0,0,1,300,212.56Z"/><path class="cls-2" d="M149.74,68.61A145.34,145.34,0,0,0,132,69.69,144,144,0,0,1,258.24,212.54a145.3,145.3,0,0,1-1.19,18.56,143.27,143.27,0,0,1-5.41,26.57l-.58-.16a144.08,144.08,0,0,1-119,97.87,143.91,143.91,0,0,0,154.4-97.87l.58.16a143.27,143.27,0,0,0,5.41-26.57A144,144,0,0,0,149.74,68.61Z"/><path class="cls-3" d="M41.91,395.66a20.55,20.55,0,0,1-20-24.9l13.33-61.33A150.81,150.81,0,0,1,0,212.56c0-83.24,67.72-151,151-151h1.77c83.24,0,151,67.72,151,151a152.81,152.81,0,0,1-1.23,19.37,151.58,151.58,0,0,1-5.67,27.8l-2,6.42-.86-.22a150.64,150.64,0,0,1-141.24,97.59h-1.08l-.68,0a150.69,150.69,0,0,1-44.18-6.57L53.2,392.25A20.47,20.47,0,0,1,41.91,395.66ZM151,75.64c-75.57,0-137,61.42-137,136.92a136.78,136.78,0,0,0,34,90.32l2.34,2.66-14.82,68.2a6.49,6.49,0,0,0,9.91,6.79l59.21-39,3.23,1.07a136.52,136.52,0,0,0,43,6.9c.59,0,1,0,1.39,0h.37a136.64,136.64,0,0,0,130.1-94.14l2-6.24.28.07a137.66,137.66,0,0,0,3.36-18.82l0-.15a138.76,138.76,0,0,0,1.12-17.65c0-75.5-61.42-136.92-136.92-136.92h-.39C151.9,75.66,151.47,75.66,151,75.64Z"/><path class="cls-4" d="M166.94,150.38A145.23,145.23,0,0,0,168,168.93a144.06,144.06,0,0,0,5.31,26.6l.58-.15a144,144,0,0,0,136.37,99.5h1.08l.68,0a143.62,143.62,0,0,0,45.27-7.08l56.22,37.37a13.5,13.5,0,0,0,20.69-14.06l-13.82-64.8A143.93,143.93,0,0,0,313.2,7h-.67l-1.1,0A143.94,143.94,0,0,0,166.94,150.38Z"/><path class="cls-5" d="M435.25,317.12a13.51,13.51,0,0,1-20.69,14.06l-1.63-1.08a13.24,13.24,0,0,0,4.32-13l-13.82-64.8A143.93,143.93,0,0,0,303.82,13.24c2.85-.17,5.72-.24,8.62-.23l1.09,0,.67,0A143.93,143.93,0,0,1,421.43,252.32Z"/><path class="cls-6" d="M317.75,7a145.34,145.34,0,0,1,17.71,1.16A144.05,144.05,0,0,0,209.79,169.08a143.27,143.27,0,0,0,5.3,26.6l.58-.15a144.08,144.08,0,0,0,118.58,98.34,143.91,143.91,0,0,1-154-98.47l-.58.15a143.27,143.27,0,0,1-5.3-26.6A144,144,0,0,1,317.75,7Z"/><path class="cls-3" d="M424.38,334.48A20.48,20.48,0,0,1,413,331l-53.42-35.51a150.66,150.66,0,0,1-44.21,6.4l-.6,0h-.46c-.23,0-.45,0-.7,0a150.64,150.64,0,0,1-140.86-98.13l-.86.22L170,197.56a151.56,151.56,0,0,1-5.56-27.82,152.85,152.85,0,0,1-1.15-19.38h0C163.58,67.33,231.24,0,314.19,0h2.38C399.8.33,467.25,68.32,466.92,151.55a150.81,150.81,0,0,1-35.57,96.73l13.09,61.39a20.55,20.55,0,0,1-20.06,24.82Zm-62.65-54.39,59.05,39.25a6.49,6.49,0,0,0,9.94-6.74l-14.56-68.27,2.35-2.65a136.78,136.78,0,0,0,34.38-90.18C453.19,76,392,14.33,316.51,14h-2.31A136.92,136.92,0,0,0,177.28,150.42a138.79,138.79,0,0,0,1.06,17.66l0,.15A137.74,137.74,0,0,0,181.63,187l.28-.07,2,6.26a136.64,136.64,0,0,0,129.73,94.65H314c.23,0,.46,0,.7,0l.6,0a136.86,136.86,0,0,0,43.15-6.73Z"/><rect class="cls-3" height="14.03" width="84.72" x="86.35" y="159.08"/><rect class="cls-3" height="14.03" width="84.73" x="115.87" y="233.53"/><rect class="cls-3" height="14.03" width="136.07" x="41.42" y="195.02"/><rect class="cls-3" height="14.03" width="84.72" x="247.42" y="107.08"/><rect class="cls-3" height="14.03" width="84.73" x="247.42" y="181.53"/><rect class="cls-3" height="14.03" width="136.07" x="247.42" y="143.02"/></g></g></svg>